<svg width="160" height="160" viewBox="0 0 160 160" fill="none" xmlns="http://www.w3.org/2000/svg">
<rect width="160" height="160" fill="#F2F2F2"/>
<g id="Desktop">
<rect width="1440" height="800" transform="translate(-640 -232)" fill="#D5E1EF"/>
<g id="Group 3">
<g id="Rectangle" filter="url(#filter0_d_0_1468)">
<rect x="-80" y="-80" width="320" height="497" rx="20" fill="white"/>
</g>
<g id="Oval">
<rect id="Mask" x="-64" y="-64" width="288" height="288" rx="10" fill="#2C7DFA"/>
<mask id="mask0_0_1468" style="mask-type:luminance" maskUnits="userSpaceOnUse" x="-64" y="-64" width="288" height="288">
<rect id="Mask_2" x="-64" y="-64" width="288" height="288" rx="10" fill="white"/>
</mask>
<g mask="url(#mask0_0_1468)">
<circle id="Oval_2" cx="202.5" cy="275.5" r="135" fill="#3685FF"/>
<circle id="Oval Copy" cx="-31.5" cy="-64.5" r="164" fill="#3685FF"/>
</g>
</g>
<g id="qr-code">
<rect id="Rectangle_2" x="55.1724" width="5.51724" height="5.51724" fill="white"/>
<rect id="Rectangle_3" x="82.7586" width="5.51724" height="5.51724" fill="white"/>
<rect id="Rectangle_4" x="88.2759" width="5.51724" height="5.51724" fill="white"/>
<rect id="Rectangle_5" x="99.3104" width="5.51724" height="5.51724" fill="white"/>
<rect id="Rectangle_6" x="44.1379" y="5.51721" width="5.51724" height="5.51724" fill="white"/>
<rect id="Rectangle_7" x="49.6552" y="5.51721" width="5.51724" height="5.51724" fill="white"/>
<rect id="Rectangle_8" x="60.6896" y="5.51721" width="5.51724" height="5.51724" fill="white"/>
<rect id="Rectangle_9" x="66.2069" y="5.51721" width="5.51724" height="5.51724" fill="white"/>
<rect id="Rectangle_10" x="71.7241" y="5.51721" width="5.51724" height="5.51724" fill="white"/>
<rect id="Rectangle_11" x="77.2414" y="5.51721" width="5.51724" height="5.51724" fill="white"/>
<rect id="Rectangle_12" x="88.2759" y="5.51721" width="5.51724" height="5.51724" fill="white"/>
<rect id="Rectangle_13" x="93.7931" y="5.51721" width="5.51724" height="5.51724" fill="white"/>
<rect id="Rectangle_14" x="110.345" y="5.51721" width="5.51724" height="5.51724" fill="white"/>
<rect id="Rectangle_15" x="44.1379" y="11.0345" width="5.51724" height="5.51724" fill="white"/>
<rect id="Rectangle_16" x="49.6552" y="11.0345" width="5.51724" height="5.51724" fill="white"/>
<rect id="Rectangle_17" x="55.1724" y="11.0345" width="5.51724" height="5.51724" fill="white"/>
<rect id="Rectangle_18" x="66.2069" y="11.0345" width="5.51724" height="5.51724" fill="white"/>
<rect id="Rectangle_19" x="71.7241" y="11.0345" width="5.51724" height="5.51724" fill="white"/>
<rect id="Rectangle_20" x="82.7586" y="11.0345" width="5.51724" height="5.51724" fill="white"/>
<rect id="Rectangle_21" x="99.3104" y="11.0345" width="5.51724" height="5.51724" fill="white"/>
<rect id="Rectangle_22" x="110.345" y="11.0345" width="5.51724" height="5.51724" fill="white"/>
<rect id="Rectangle_23" x="44.1379" y="16.5517" width="5.51724" height="5.51724" fill="white"/>
<rect id="Rectangle_24" x="49.6552" y="16.5517" width="5.51724" height="5.51724" fill="white"/>
<rect id="Rectangle_25" x="60.6896" y="16.5517" width="5.51724" height="5.51724" fill="white"/>
<rect id="Rectangle_26" x="88.2759" y="16.5517" width="5.51724" height="5.51724" fill="white"/>
<rect id="Rectangle_27" x="93.7931" y="16.5517" width="5.51724" height="5.51724" fill="white"/>
<rect id="Rectangle_28" x="110.345" y="16.5517" width="5.51724" height="5.51724" fill="white"/>
<rect id="Rectangle_29" x="49.6552" y="22.069" width="5.51724" height="5.51724" fill="white"/>
<rect id="Rectangle_30" x="82.7586" y="22.069" width="5.51724" height="5.51724" fill="white"/>
<rect id="Rectangle_31" x="88.2759" y="22.069" width="5.51724" height="5.51724" fill="white"/>
<rect id="Rectangle_32" x="104.828" y="22.069" width="5.51724" height="5.51724" fill="white"/>
<rect id="Rectangle_33" x="110.345" y="22.069" width="5.51724" height="5.51724" fill="white"/>
<rect id="Rectangle_34" x="49.6552" y="27.5862" width="5.51724" height="5.51724" fill="white"/>
<rect id="Rectangle_35" x="66.2069" y="27.5862" width="5.51724" height="5.51724" fill="white"/>
<rect id="Rectangle_36" x="82.7586" y="27.5862" width="5.51724" height="5.51724" fill="white"/>
<rect id="Rectangle_37" x="110.345" y="27.5862" width="5.51724" height="5.51724" fill="white"/>
<rect id="Rectangle_38" x="44.1379" y="33.1035" width="5.51724" height="5.51724" fill="white"/>
<rect id="Rectangle_39" x="55.1724" y="33.1035" width="5.51724" height="5.51724" fill="white"/>
<rect id="Rectangle_40" x="66.2069" y="33.1035" width="5.51724" height="5.51724" fill="white"/>
<rect id="Rectangle_41" x="77.2414" y="33.1035" width="5.51724" height="5.51724" fill="white"/>
<rect id="Rectangle_42" x="88.2759" y="33.1035" width="5.51724" height="5.51724" fill="white"/>
<rect id="Rectangle_43" x="99.3104" y="33.1035" width="5.51724" height="5.51724" fill="white"/>
<rect id="Rectangle_44" x="110.345" y="33.1035" width="5.51724" height="5.51724" fill="white"/>
<rect id="Rectangle_45" x="44.1379" y="38.6207" width="5.51724" height="5.51724" fill="white"/>
<rect id="Rectangle_46" x="60.6896" y="38.6207" width="5.51724" height="5.51724" fill="white"/>
<rect id="Rectangle_47" x="77.2414" y="38.6207" width="5.51724" height="5.51724" fill="white"/>
<rect id="Rectangle_48" x="82.7586" y="38.6207" width="5.51724" height="5.51724" fill="white"/>
<rect id="Rectangle_49" x="88.2759" y="38.6207" width="5.51724" height="5.51724" fill="white"/>
<rect id="Rectangle_50" x="99.3104" y="38.6207" width="5.51724" height="5.51724" fill="white"/>
<rect id="Rectangle_51" x="110.345" y="38.6207" width="5.51724" height="5.51724" fill="white"/>
<rect id="Rectangle_52" y="44.1379" width="5.51724" height="5.51724" fill="white"/>
<rect id="Rectangle_53" x="33.1035" y="44.1379" width="5.51724" height="5.51724" fill="white"/>
<rect id="Rectangle_54" x="44.1379" y="44.1379" width="5.51724" height="5.51724" fill="white"/>
<rect id="Rectangle_55" x="55.1724" y="44.1379" width="5.51724" height="5.51724" fill="white"/>
<rect id="Rectangle_56" x="88.2759" y="44.1379" width="5.51724" height="5.51724" fill="white"/>
<rect id="Rectangle_57" x="93.7931" y="44.1379" width="5.51724" height="5.51724" fill="white"/>
<rect id="Rectangle_58" x="104.828" y="44.1379" width="5.51724" height="5.51724" fill="white"/>
<rect id="Rectangle_59" x="115.862" y="44.1379" width="5.51724" height="5.51724" fill="white"/>
<rect id="Rectangle_60" x="121.379" y="44.1379" width="5.51724" height="5.51724" fill="white"/>
<rect id="Rectangle_61" x="137.931" y="44.1379" width="5.51724" height="5.51724" fill="white"/>
<rect id="Rectangle_62" x="143.448" y="44.1379" width="5.51724" height="5.51724" fill="white"/>
<rect id="Rectangle_63" x="148.966" y="44.1379" width="5.51724" height="5.51724" fill="white"/>
<rect id="Rectangle_64" y="49.6552" width="5.51724" height="5.51724" fill="white"/>
<rect id="Rectangle_65" x="11.0345" y="49.6552" width="5.51724" height="5.51724" fill="white"/>
<rect id="Rectangle_66" x="27.5862" y="49.6552" width="5.51724" height="5.51724" fill="white"/>
<rect id="Rectangle_67" x="71.7241" y="49.6552" width="5.51724" height="5.51724" fill="white"/>
<rect id="Rectangle_68" x="88.2759" y="49.6552" width="5.51724" height="5.51724" fill="white"/>
<rect id="Rectangle_69" x="93.7931" y="49.6552" width="5.51724" height="5.51724" fill="white"/>
<rect id="Rectangle_70" x="99.3104" y="49.6552" width="5.51724" height="5.51724" fill="white"/>
<rect id="Rectangle_71" x="104.828" y="49.6552" width="5.51724" height="5.51724" fill="white"/>
<rect id="Rectangle_72" x="126.897" y="49.6552" width="5.51724" height="5.51724" fill="white"/>
<rect id="Rectangle_73" x="132.414" y="49.6552" width="5.51724" height="5.51724" fill="white"/>
<rect id="Rectangle_74" x="143.448" y="49.6552" width="5.51724" height="5.51724" fill="white"/>
<rect id="Rectangle_75" x="148.966" y="49.6552" width="5.51724" height="5.51724" fill="white"/>
<rect id="Rectangle_76" x="5.51721" y="55.1724" width="5.51724" height="5.51724" fill="white"/>
<rect id="Rectangle_77" x="11.0345" y="55.1724" width="5.51724" height="5.51724" fill="white"/>
<rect id="Rectangle_78" x="16.5517" y="55.1724" width="5.51724" height="5.51724" fill="white"/>
<rect id="Rectangle_79" x="22.069" y="55.1724" width="5.51724" height="5.51724" fill="white"/>
<rect id="Rectangle_80" x="33.1035" y="55.1724" width="5.51724" height="5.51724" fill="white"/>
<rect id="Rectangle_81" x="38.6207" y="55.1724" width="5.51724" height="5.51724" fill="white"/>
<rect id="Rectangle_82" x="44.1379" y="55.1724" width="5.51724" height="5.51724" fill="white"/>
<rect id="Rectangle_83" x="49.6552" y="55.1724" width="5.51724" height="5.51724" fill="white"/>
<rect id="Rectangle_84" x="66.2069" y="55.1724" width="5.51724" height="5.51724" fill="white"/>
<rect id="Rectangle_85" x="71.7241" y="55.1724" width="5.51724" height="5.51724" fill="white"/>
<rect id="Rectangle_86" x="77.2414" y="55.1724" width="5.51724" height="5.51724" fill="white"/>
<rect id="Rectangle_87" x="82.7586" y="55.1724" width="5.51724" height="5.51724" fill="white"/>
<rect id="Rectangle_88" x="88.2759" y="55.1724" width="5.51724" height="5.51724" fill="white"/>
<rect id="Rectangle_89" x="93.7931" y="55.1724" width="5.51724" height="5.51724" fill="white"/>
<rect id="Rectangle_90" y="60.6896" width="5.51724" height="5.51724" fill="white"/>
<rect id="Rectangle_91" x="11.0345" y="60.6896" width="5.51724" height="5.51724" fill="white"/>
<rect id="Rectangle_92" x="27.5862" y="60.6896" width="5.51724" height="5.51724" fill="white"/>
<rect id="Rectangle_93" x="38.6207" y="60.6896" width="5.51724" height="5.51724" fill="white"/>
<rect id="Rectangle_94" x="44.1379" y="60.6896" width="5.51724" height="5.51724" fill="white"/>
<rect id="Rectangle_95" x="49.6552" y="60.6896" width="5.51724" height="5.51724" fill="white"/>
<rect id="Rectangle_96" x="55.1724" y="60.6896" width="5.51724" height="5.51724" fill="white"/>
<rect id="Rectangle_97" x="66.2069" y="60.6896" width="5.51724" height="5.51724" fill="white"/>
<rect id="Rectangle_98" x="71.7241" y="60.6896" width="5.51724" height="5.51724" fill="white"/>
<rect id="Rectangle_99" x="110.345" y="60.6896" width="5.51724" height="5.51724" fill="white"/>
<rect id="Rectangle_100" x="121.379" y="60.6896" width="5.51724" height="5.51724" fill="white"/>
<rect id="Rectangle_101" x="126.897" y="60.6896" width="5.51724" height="5.51724" fill="white"/>
<rect id="Rectangle_102" x="137.931" y="60.6896" width="5.51724" height="5.51724" fill="white"/>
<rect id="Rectangle_103" x="5.51721" y="66.2069" width="5.51724" height="5.51724" fill="white"/>
<rect id="Rectangle_104" x="27.5862" y="66.2069" width="5.51724" height="5.51724" fill="white"/>
<rect id="Rectangle_105" x="33.1035" y="66.2069" width="5.51724" height="5.51724" fill="white"/>
<rect id="Rectangle_106" x="44.1379" y="66.2069" width="5.51724" height="5.51724" fill="white"/>
<rect id="Rectangle_107" x="55.1724" y="66.2069" width="5.51724" height="5.51724" fill="white"/>
<rect id="Rectangle_108" x="71.7241" y="66.2069" width="5.51724" height="5.51724" fill="white"/>
<rect id="Rectangle_109" x="82.7586" y="66.2069" width="5.51724" height="5.51724" fill="white"/>
<rect id="Rectangle_110" x="88.2759" y="66.2069" width="5.51724" height="5.51724" fill="white"/>
<rect id="Rectangle_111" x="104.828" y="66.2069" width="5.51724" height="5.51724" fill="white"/>
<rect id="Rectangle_112" x="110.345" y="66.2069" width="5.51724" height="5.51724" fill="white"/>
<rect id="Rectangle_113" x="121.379" y="66.2069" width="5.51724" height="5.51724" fill="white"/>
<rect id="Rectangle_114" x="126.897" y="66.2069" width="5.51724" height="5.51724" fill="white"/>
<rect id="Rectangle_115" x="154.483" y="66.2069" width="5.51724" height="5.51724" fill="white"/>
<rect id="Rectangle_116" x="11.0345" y="71.7241" width="5.51724" height="5.51724" fill="white"/>
<rect id="Rectangle_117" x="22.069" y="71.7241" width="5.51724" height="5.51724" fill="white"/>
<rect id="Rectangle_118" x="38.6207" y="71.7241" width="5.51724" height="5.51724" fill="white"/>
<rect id="Rectangle_119" x="49.6552" y="71.7241" width="5.51724" height="5.51724" fill="white"/>
<rect id="Rectangle_120" x="55.1724" y="71.7241" width="5.51724" height="5.51724" fill="white"/>
<rect id="Rectangle_121" x="88.2759" y="71.7241" width="5.51724" height="5.51724" fill="white"/>
<rect id="Rectangle_122" x="104.828" y="71.7241" width="5.51724" height="5.51724" fill="white"/>
<rect id="Rectangle_123" x="110.345" y="71.7241" width="5.51724" height="5.51724" fill="white"/>
<rect id="Rectangle_124" x="115.862" y="71.7241" width="5.51724" height="5.51724" fill="white"/>
<rect id="Rectangle_125" x="121.379" y="71.7241" width="5.51724" height="5.51724" fill="white"/>
<rect id="Rectangle_126" x="132.414" y="71.7241" width="5.51724" height="5.51724" fill="white"/>
<rect id="Rectangle_127" x="148.966" y="71.7241" width="5.51724" height="5.51724" fill="white"/>
<rect id="Rectangle_128" x="154.483" y="71.7241" width="5.51724" height="5.51724" fill="white"/>
<rect id="Rectangle_129" y="77.2414" width="5.51724" height="5.51724" fill="white"/>
<rect id="Rectangle_130" x="5.51721" y="77.2414" width="5.51724" height="5.51724" fill="white"/>
<rect id="Rectangle_131" x="22.069" y="77.2414" width="5.51724" height="5.51724" fill="white"/>
<rect id="Rectangle_132" x="33.1035" y="77.2414" width="5.51724" height="5.51724" fill="white"/>
<rect id="Rectangle_133" x="44.1379" y="77.2414" width="5.51724" height="5.51724" fill="white"/>
<rect id="Rectangle_134" x="49.6552" y="77.2414" width="5.51724" height="5.51724" fill="white"/>
<rect id="Rectangle_135" x="93.7931" y="77.2414" width="5.51724" height="5.51724" fill="white"/>
<rect id="Rectangle_136" x="99.3104" y="77.2414" width="5.51724" height="5.51724" fill="white"/>
<rect id="Rectangle_137" x="115.862" y="77.2414" width="5.51724" height="5.51724" fill="white"/>
<rect id="Rectangle_138" x="126.897" y="77.2414" width="5.51724" height="5.51724" fill="white"/>
<rect id="Rectangle_139" x="137.931" y="77.2414" width="5.51724" height="5.51724" fill="white"/>
<rect id="Rectangle_140" x="143.448" y="77.2414" width="5.51724" height="5.51724" fill="white"/>
<rect id="Rectangle_141" x="44.1379" y="82.7586" width="5.51724" height="5.51724" fill="white"/>
<rect id="Rectangle_142" x="49.6552" y="82.7586" width="5.51724" height="5.51724" fill="white"/>
<rect id="Rectangle_143" x="55.1724" y="82.7586" width="5.51724" height="5.51724" fill="white"/>
<rect id="Rectangle_144" x="82.7586" y="82.7586" width="5.51724" height="5.51724" fill="white"/>
<rect id="Rectangle_145" x="99.3104" y="82.7586" width="5.51724" height="5.51724" fill="white"/>
<rect id="Rectangle_146" x="104.828" y="82.7586" width="5.51724" height="5.51724" fill="white"/>
<rect id="Rectangle_147" x="126.897" y="82.7586" width="5.51724" height="5.51724" fill="white"/>
<rect id="Rectangle_148" x="132.414" y="82.7586" width="5.51724" height="5.51724" fill="white"/>
<rect id="Rectangle_149" x="143.448" y="82.7586" width="5.51724" height="5.51724" fill="white"/>
<rect id="Rectangle_150" x="154.483" y="82.7586" width="5.51724" height="5.51724" fill="white"/>
<rect id="Rectangle_151" y="88.2759" width="5.51724" height="5.51724" fill="white"/>
<rect id="Rectangle_152" x="22.069" y="88.2759" width="5.51724" height="5.51724" fill="white"/>
<rect id="Rectangle_153" x="27.5862" y="88.2759" width="5.51724" height="5.51724" fill="white"/>
<rect id="Rectangle_154" x="33.1035" y="88.2759" width="5.51724" height="5.51724" fill="white"/>
<rect id="Rectangle_155" x="60.6896" y="88.2759" width="5.51724" height="5.51724" fill="white"/>
<rect id="Rectangle_156" x="88.2759" y="88.2759" width="5.51724" height="5.51724" fill="white"/>
<rect id="Rectangle_157" x="93.7931" y="88.2759" width="5.51724" height="5.51724" fill="white"/>
<rect id="Rectangle_158" x="99.3104" y="88.2759" width="5.51724" height="5.51724" fill="white"/>
<rect id="Rectangle_159" x="104.828" y="88.2759" width="5.51724" height="5.51724" fill="white"/>
<rect id="Rectangle_160" x="126.897" y="88.2759" width="5.51724" height="5.51724" fill="white"/>
<rect id="Rectangle_161" x="137.931" y="88.2759" width="5.51724" height="5.51724" fill="white"/>
<rect id="Rectangle_162" x="143.448" y="88.2759" width="5.51724" height="5.51724" fill="white"/>
<rect id="Rectangle_163" y="93.7931" width="5.51724" height="5.51724" fill="white"/>
<rect id="Rectangle_164" x="38.6207" y="93.7931" width="5.51724" height="5.51724" fill="white"/>
<rect id="Rectangle_165" x="44.1379" y="93.7931" width="5.51724" height="5.51724" fill="white"/>
<rect id="Rectangle_166" x="49.6552" y="93.7931" width="5.51724" height="5.51724" fill="white"/>
<rect id="Rectangle_167" x="60.6896" y="93.7931" width="5.51724" height="5.51724" fill="white"/>
<rect id="Rectangle_168" x="71.7241" y="93.7931" width="5.51724" height="5.51724" fill="white"/>
<rect id="Rectangle_169" x="77.2414" y="93.7931" width="5.51724" height="5.51724" fill="white"/>
<rect id="Rectangle_170" x="93.7931" y="93.7931" width="5.51724" height="5.51724" fill="white"/>
<rect id="Rectangle_171" x="99.3104" y="93.7931" width="5.51724" height="5.51724" fill="white"/>
<rect id="Rectangle_172" x="104.828" y="93.7931" width="5.51724" height="5.51724" fill="white"/>
<rect id="Rectangle_173" x="110.345" y="93.7931" width="5.51724" height="5.51724" fill="white"/>
<rect id="Rectangle_174" x="121.379" y="93.7931" width="5.51724" height="5.51724" fill="white"/>
<rect id="Rectangle_175" x="126.897" y="93.7931" width="5.51724" height="5.51724" fill="white"/>
<rect id="Rectangle_176" x="132.414" y="93.7931" width="5.51724" height="5.51724" fill="white"/>
<rect id="Rectangle_177" x="143.448" y="93.7931" width="5.51724" height="5.51724" fill="white"/>
<rect id="Rectangle_178" x="148.966" y="93.7931" width="5.51724" height="5.51724" fill="white"/>
<rect id="Rectangle_179" x="154.483" y="93.7931" width="5.51724" height="5.51724" fill="white"/>
<rect id="Rectangle_180" y="99.3104" width="5.51724" height="5.51724" fill="white"/>
<rect id="Rectangle_181" x="5.51721" y="99.3104" width="5.51724" height="5.51724" fill="white"/>
<rect id="Rectangle_182" x="16.5517" y="99.3104" width="5.51724" height="5.51724" fill="white"/>
<rect id="Rectangle_183" x="22.069" y="99.3104" width="5.51724" height="5.51724" fill="white"/>
<rect id="Rectangle_184" x="27.5862" y="99.3104" width="5.51724" height="5.51724" fill="white"/>
<rect id="Rectangle_185" x="33.1035" y="99.3104" width="5.51724" height="5.51724" fill="white"/>
<rect id="Rectangle_186" x="44.1379" y="99.3104" width="5.51724" height="5.51724" fill="white"/>
<rect id="Rectangle_187" x="49.6552" y="99.3104" width="5.51724" height="5.51724" fill="white"/>
<rect id="Rectangle_188" x="60.6896" y="99.3104" width="5.51724" height="5.51724" fill="white"/>
<rect id="Rectangle_189" x="82.7586" y="99.3104" width="5.51724" height="5.51724" fill="white"/>
<rect id="Rectangle_190" x="104.828" y="99.3104" width="5.51724" height="5.51724" fill="white"/>
<rect id="Rectangle_191" x="137.931" y="99.3104" width="5.51724" height="5.51724" fill="white"/>
<rect id="Rectangle_192" x="154.483" y="99.3104" width="5.51724" height="5.51724" fill="white"/>
<rect id="Rectangle_193" y="104.828" width="5.51724" height="5.51724" fill="white"/>
<rect id="Rectangle_194" x="11.0345" y="104.828" width="5.51724" height="5.51724" fill="white"/>
<rect id="Rectangle_195" x="16.5517" y="104.828" width="5.51724" height="5.51724" fill="white"/>
<rect id="Rectangle_196" x="27.5862" y="104.828" width="5.51724" height="5.51724" fill="white"/>
<rect id="Rectangle_197" x="49.6552" y="104.828" width="5.51724" height="5.51724" fill="white"/>
<rect id="Rectangle_198" x="55.1724" y="104.828" width="5.51724" height="5.51724" fill="white"/>
<rect id="Rectangle_199" x="66.2069" y="104.828" width="5.51724" height="5.51724" fill="white"/>
<rect id="Rectangle_200" x="71.7241" y="104.828" width="5.51724" height="5.51724" fill="white"/>
<rect id="Rectangle_201" x="99.3104" y="104.828" width="5.51724" height="5.51724" fill="white"/>
<rect id="Rectangle_202" x="110.345" y="104.828" width="5.51724" height="5.51724" fill="white"/>
<rect id="Rectangle_203" x="115.862" y="104.828" width="5.51724" height="5.51724" fill="white"/>
<rect id="Rectangle_204" x="121.379" y="104.828" width="5.51724" height="5.51724" fill="white"/>
<rect id="Rectangle_205" x="126.897" y="104.828" width="5.51724" height="5.51724" fill="white"/>
<rect id="Rectangle_206" x="132.414" y="104.828" width="5.51724" height="5.51724" fill="white"/>
<rect id="Rectangle_207" y="110.345" width="5.51724" height="5.51724" fill="white"/>
<rect id="Rectangle_208" x="22.069" y="110.345" width="5.51724" height="5.51724" fill="white"/>
<rect id="Rectangle_209" x="33.1035" y="110.345" width="5.51724" height="5.51724" fill="white"/>
<rect id="Rectangle_210" x="38.6207" y="110.345" width="5.51724" height="5.51724" fill="white"/>
<rect id="Rectangle_211" x="49.6552" y="110.345" width="5.51724" height="5.51724" fill="white"/>
<rect id="Rectangle_212" x="60.6896" y="110.345" width="5.51724" height="5.51724" fill="white"/>
<rect id="Rectangle_213" x="77.2414" y="110.345" width="5.51724" height="5.51724" fill="white"/>
<rect id="Rectangle_214" x="82.7586" y="110.345" width="5.51724" height="5.51724" fill="white"/>
<rect id="Rectangle_215" x="93.7931" y="110.345" width="5.51724" height="5.51724" fill="white"/>
<rect id="Rectangle_216" x="110.345" y="110.345" width="5.51724" height="5.51724" fill="white"/>
<rect id="Rectangle_217" x="115.862" y="110.345" width="5.51724" height="5.51724" fill="white"/>
<rect id="Rectangle_218" x="121.379" y="110.345" width="5.51724" height="5.51724" fill="white"/>
<rect id="Rectangle_219" x="126.897" y="110.345" width="5.51724" height="5.51724" fill="white"/>
<rect id="Rectangle_220" x="132.414" y="110.345" width="5.51724" height="5.51724" fill="white"/>
<rect id="Rectangle_221" x="143.448" y="110.345" width="5.51724" height="5.51724" fill="white"/>
<rect id="Rectangle_222" x="148.966" y="110.345" width="5.51724" height="5.51724" fill="white"/>
<rect id="Rectangle_223" x="154.483" y="110.345" width="5.51724" height="5.51724" fill="white"/>
<rect id="Rectangle_224" x="44.1379" y="115.862" width="5.51724" height="5.51724" fill="white"/>
<rect id="Rectangle_225" x="49.6552" y="115.862" width="5.51724" height="5.51724" fill="white"/>
<rect id="Rectangle_226" x="55.1724" y="115.862" width="5.51724" height="5.51724" fill="white"/>
<rect id="Rectangle_227" x="77.2414" y="115.862" width="5.51724" height="5.51724" fill="white"/>
<rect id="Rectangle_228" x="93.7931" y="115.862" width="5.51724" height="5.51724" fill="white"/>
<rect id="Rectangle_229" x="99.3104" y="115.862" width="5.51724" height="5.51724" fill="white"/>
<rect id="Rectangle_230" x="110.345" y="115.862" width="5.51724" height="5.51724" fill="white"/>
<rect id="Rectangle_231" x="132.414" y="115.862" width="5.51724" height="5.51724" fill="white"/>
<rect id="Rectangle_232" x="137.931" y="115.862" width="5.51724" height="5.51724" fill="white"/>
<rect id="Rectangle_233" x="66.2069" y="121.379" width="5.51724" height="5.51724" fill="white"/>
<rect id="Rectangle_234" x="99.3104" y="121.379" width="5.51724" height="5.51724" fill="white"/>
<rect id="Rectangle_235" x="104.828" y="121.379" width="5.51724" height="5.51724" fill="white"/>
<rect id="Rectangle_236" x="110.345" y="121.379" width="5.51724" height="5.51724" fill="white"/>
<rect id="Rectangle_237" x="121.379" y="121.379" width="5.51724" height="5.51724" fill="white"/>
<rect id="Rectangle_238" x="132.414" y="121.379" width="5.51724" height="5.51724" fill="white"/>
<rect id="Rectangle_239" x="137.931" y="121.379" width="5.51724" height="5.51724" fill="white"/>
<rect id="Rectangle_240" x="143.448" y="121.379" width="5.51724" height="5.51724" fill="white"/>
<rect id="Rectangle_241" x="55.1724" y="126.897" width="5.51724" height="5.51724" fill="white"/>
<rect id="Rectangle_242" x="60.6896" y="126.897" width="5.51724" height="5.51724" fill="white"/>
<rect id="Rectangle_243" x="77.2414" y="126.897" width="5.51724" height="5.51724" fill="white"/>
<rect id="Rectangle_244" x="82.7586" y="126.897" width="5.51724" height="5.51724" fill="white"/>
<rect id="Rectangle_245" x="88.2759" y="126.897" width="5.51724" height="5.51724" fill="white"/>
<rect id="Rectangle_246" x="104.828" y="126.897" width="5.51724" height="5.51724" fill="white"/>
<rect id="Rectangle_247" x="110.345" y="126.897" width="5.51724" height="5.51724" fill="white"/>
<rect id="Rectangle_248" x="132.414" y="126.897" width="5.51724" height="5.51724" fill="white"/>
<rect id="Rectangle_249" x="154.483" y="126.897" width="5.51724" height="5.51724" fill="white"/>
<rect id="Rectangle_250" x="66.2069" y="132.414" width="5.51724" height="5.51724" fill="white"/>
<rect id="Rectangle_251" x="71.7241" y="132.414" width="5.51724" height="5.51724" fill="white"/>
<rect id="Rectangle_252" x="77.2414" y="132.414" width="5.51724" height="5.51724" fill="white"/>
<rect id="Rectangle_253" x="88.2759" y="132.414" width="5.51724" height="5.51724" fill="white"/>
<rect id="Rectangle_254" x="104.828" y="132.414" width="5.51724" height="5.51724" fill="white"/>
<rect id="Rectangle_255" x="110.345" y="132.414" width="5.51724" height="5.51724" fill="white"/>
<rect id="Rectangle_256" x="115.862" y="132.414" width="5.51724" height="5.51724" fill="white"/>
<rect id="Rectangle_257" x="121.379" y="132.414" width="5.51724" height="5.51724" fill="white"/>
<rect id="Rectangle_258" x="126.897" y="132.414" width="5.51724" height="5.51724" fill="white"/>
<rect id="Rectangle_259" x="132.414" y="132.414" width="5.51724" height="5.51724" fill="white"/>
<rect id="Rectangle_260" x="137.931" y="132.414" width="5.51724" height="5.51724" fill="white"/>
<rect id="Rectangle_261" x="49.6552" y="137.931" width="5.51724" height="5.51724" fill="white"/>
<rect id="Rectangle_262" x="55.1724" y="137.931" width="5.51724" height="5.51724" fill="white"/>
<rect id="Rectangle_263" x="60.6896" y="137.931" width="5.51724" height="5.51724" fill="white"/>
<rect id="Rectangle_264" x="71.7241" y="137.931" width="5.51724" height="5.51724" fill="white"/>
<rect id="Rectangle_265" x="77.2414" y="137.931" width="5.51724" height="5.51724" fill="white"/>
<rect id="Rectangle_266" x="93.7931" y="137.931" width="5.51724" height="5.51724" fill="white"/>
<rect id="Rectangle_267" x="99.3104" y="137.931" width="5.51724" height="5.51724" fill="white"/>
<rect id="Rectangle_268" x="115.862" y="137.931" width="5.51724" height="5.51724" fill="white"/>
<rect id="Rectangle_269" x="126.897" y="137.931" width="5.51724" height="5.51724" fill="white"/>
<rect id="Rectangle_270" x="137.931" y="137.931" width="5.51724" height="5.51724" fill="white"/>
<rect id="Rectangle_271" x="143.448" y="137.931" width="5.51724" height="5.51724" fill="white"/>
<rect id="Rectangle_272" x="148.966" y="137.931" width="5.51724" height="5.51724" fill="white"/>
<rect id="Rectangle_273" x="49.6552" y="143.448" width="5.51724" height="5.51724" fill="white"/>
<rect id="Rectangle_274" x="55.1724" y="143.448" width="5.51724" height="5.51724" fill="white"/>
<rect id="Rectangle_275" x="82.7586" y="143.448" width="5.51724" height="5.51724" fill="white"/>
<rect id="Rectangle_276" x="88.2759" y="143.448" width="5.51724" height="5.51724" fill="white"/>
<rect id="Rectangle_277" x="93.7931" y="143.448" width="5.51724" height="5.51724" fill="white"/>
<rect id="Rectangle_278" x="104.828" y="143.448" width="5.51724" height="5.51724" fill="white"/>
<rect id="Rectangle_279" x="115.862" y="143.448" width="5.51724" height="5.51724" fill="white"/>
<rect id="Rectangle_280" x="121.379" y="143.448" width="5.51724" height="5.51724" fill="white"/>
<rect id="Rectangle_281" x="126.897" y="143.448" width="5.51724" height="5.51724" fill="white"/>
<rect id="Rectangle_282" x="132.414" y="143.448" width="5.51724" height="5.51724" fill="white"/>
<rect id="Rectangle_283" x="137.931" y="143.448" width="5.51724" height="5.51724" fill="white"/>
<rect id="Rectangle_284" x="143.448" y="143.448" width="5.51724" height="5.51724" fill="white"/>
<rect id="Rectangle_285" x="148.966" y="143.448" width="5.51724" height="5.51724" fill="white"/>
<rect id="Rectangle_286" x="66.2069" y="148.966" width="5.51724" height="5.51724" fill="white"/>
<rect id="Rectangle_287" x="82.7586" y="148.966" width="5.51724" height="5.51724" fill="white"/>
<rect id="Rectangle_288" x="104.828" y="148.966" width="5.51724" height="5.51724" fill="white"/>
<rect id="Rectangle_289" x="115.862" y="148.966" width="5.51724" height="5.51724" fill="white"/>
<rect id="Rectangle_290" x="126.897" y="148.966" width="5.51724" height="5.51724" fill="white"/>
<rect id="Rectangle_291" x="137.931" y="148.966" width="5.51724" height="5.51724" fill="white"/>
<rect id="Rectangle_292" x="143.448" y="148.966" width="5.51724" height="5.51724" fill="white"/>
<rect id="Rectangle_293" x="154.483" y="148.966" width="5.51724" height="5.51724" fill="white"/>
<rect id="Rectangle_294" x="44.1379" y="154.483" width="5.51724" height="5.51724" fill="white"/>
<rect id="Rectangle_295" x="49.6552" y="154.483" width="5.51724" height="5.51724" fill="white"/>
<rect id="Rectangle_296" x="60.6896" y="154.483" width="5.51724" height="5.51724" fill="white"/>
<rect id="Rectangle_297" x="71.7241" y="154.483" width="5.51724" height="5.51724" fill="white"/>
<rect id="Rectangle_298" x="77.2414" y="154.483" width="5.51724" height="5.51724" fill="white"/>
<rect id="Rectangle_299" x="93.7931" y="154.483" width="5.51724" height="5.51724" fill="white"/>
<rect id="Rectangle_300" x="99.3104" y="154.483" width="5.51724" height="5.51724" fill="white"/>
<rect id="Rectangle_301" x="104.828" y="154.483" width="5.51724" height="5.51724" fill="white"/>
<rect id="Rectangle_302" x="115.862" y="154.483" width="5.51724" height="5.51724" fill="white"/>
<rect id="Rectangle_303" x="121.379" y="154.483" width="5.51724" height="5.51724" fill="white"/>
<rect id="Rectangle_304" x="126.897" y="154.483" width="5.51724" height="5.51724" fill="white"/>
<rect id="Rectangle_305" x="132.414" y="154.483" width="5.51724" height="5.51724" fill="white"/>
<rect id="Rectangle_306" x="137.931" y="154.483" width="5.51724" height="5.51724" fill="white"/>
<rect id="Rectangle_307" x="143.448" y="154.483" width="5.51724" height="5.51724" fill="white"/>
<path id="Shape" fill-rule="evenodd" clip-rule="evenodd" d="M5.7931 0H32.8276H38.6207V5.7931V32.8276V38.6207H32.8276H5.7931H0V32.8276V5.7931V0H5.7931ZM5.7931 32.8276H32.8276V5.7931H5.7931V32.8276Z" fill="white"/>
<path id="Shape_2" fill-rule="evenodd" clip-rule="evenodd" d="M127.172 0H154.207H160V5.7931V32.8276V38.6207H154.207H127.172H121.379V32.8276V5.7931V0H127.172ZM127.172 32.8276H154.207V5.7931H127.172V32.8276Z" fill="white"/>
<path id="Shape_3" fill-rule="evenodd" clip-rule="evenodd" d="M5.7931 121.379H32.8276H38.6207V127.172V154.207V160H32.8276H5.7931H0V154.207V127.172V121.379H5.7931ZM5.7931 154.207H32.8276V127.172H5.7931V154.207Z" fill="white"/>
<rect id="Rectangle_308" x="11.0345" y="11.0345" width="16.5517" height="16.5517" fill="white"/>
<rect id="Rectangle_309" x="132.414" y="11.0345" width="16.5517" height="16.5517" fill="white"/>
<rect id="Rectangle_310" x="11.0345" y="132.414" width="16.5517" height="16.5517" fill="white"/>
</g>
</g>
</g>
<defs>
<filter id="filter0_d_0_1468" x="-105" y="-80" width="370" height="547" filterUnits="userSpaceOnUse" color-interpolation-filters="sRGB">
<feFlood flood-opacity="0" result="BackgroundImageFix"/>
<feColorMatrix in="SourceAlpha" type="matrix" values="0 0 0 0 0 0 0 0 0 0 0 0 0 0 0 0 0 0 127 0" result="hardAlpha"/>
<feOffset dy="25"/>
<feGaussianBlur stdDeviation="12.5"/>
<feColorMatrix type="matrix" values="0 0 0 0 0 0 0 0 0 0 0 0 0 0 0 0 0 0 0.0476518 0"/>
<feBlend mode="normal" in2="BackgroundImageFix" result="effect1_dropShadow_0_1468"/>
<feBlend mode="normal" in="SourceGraphic" in2="effect1_dropShadow_0_1468" result="shape"/>
</filter>
</defs>
</svg>
